<?xml version="1.0" encoding="UTF-8"?>
<!DOCTYPE svg  PUBLIC '-//W3C//DTD SVG 1.1//EN'  'http://www.w3.org/Graphics/SVG/1.1/DTD/svg11.dtd'>
<svg enable-background="new 0 0 595.28 841.89" version="1.1" viewBox="0 0 595.28 841.89" xml:space="preserve" xmlns="http://www.w3.org/2000/svg">
	<linearGradient id="g" x1="233.5" x2="420.38" y1="483.38" y2="483.38" gradientUnits="userSpaceOnUse">
		<stop stop-color="#272526" offset="0"/>
		<stop stop-color="#434244" offset=".3255"/>
		<stop stop-color="#3F3E3F" offset=".4298"/>
		<stop stop-color="#3C3B3C" offset=".5646"/>
		<stop stop-color="#272526" offset="1"/>
	</linearGradient>
	<path d="m389.5 720v-361c-5.82-31.484-19.823-52.836-37.191-65.155-11.265-15.795-11.506-44.362-11.455-77.401-22.393-2.572-37.285-2.601-60.09-0.034 0.055 34.169-0.197 63.567-12.627 78.998-17.94 13.11-31.48 34.75-34.64 63.59v361c1.25 41.5 157.25 44.5 156 0z" fill="url(#g)"/>
	<linearGradient id="f" x1="279.08" x2="342.53" y1="161.28" y2="161.28" gradientUnits="userSpaceOnUse">
		<stop stop-color="#A42531" offset="0"/>
		<stop stop-color="#C52B2D" offset=".5"/>
		<stop stop-color="#A42531" offset="1"/>
	</linearGradient>
	<path d="m340.85 216.44c0.017-10.874 0.064-22.23-0.238-33.777l-0.875-37.542 2-3.75c0.888-6.568 1.161-11.778 0.125-17.625l-2.125-2v-7.74c-0.625-4.256-2.646-4.569-5-5.375-5.375-0.875-16.211-2.488-23.933-2.5-7.722 0.012-18.558 1.625-23.933 2.5-2.354 0.806-4.375 1.119-5 5.375v7.75l-2.125 2c-1.036 5.847-0.763 11.057 0.125 17.625l2 3.75-0.88 37.54c-0.302 11.536-0.254 22.878-0.237 33.744 22.81-2.57 37.7-2.54 60.09 0.03z" fill="url(#f)"/>
	<path d="m288.5 110.62c5.429-2.32 8.783-2.017 14.75 0l5.926 182.43c-8.216 7.9-13.795 10.013-20.676 2.94v-185.37z" fill="#fff" opacity=".1"/>
	<path d="m273 338.68c9.874-29.978 38.504-14.032 31.333 5.741-3.457 145.69 0.298 304.75 4.843 372.17 0.09 10.382 4.463 21.803 13.272 34.517-21.207 1.9-30.7-0.965-44.478-2.607-4.139-6.772-6.6-15.783-6.637-27.764-3.79-44.65-1.59-231.42 1.68-382.06z" fill="#fff" opacity=".1"/>
	<linearGradient id="e" x1="255" x2="398.74" y1="531.5" y2="531.5" gradientUnits="userSpaceOnUse">
		<stop stop-color="#BCBFA8" offset="0"/>
		<stop stop-color="#CAC5A8" offset="1"/>
	</linearGradient>
	<path d="m375 662c-41.086 14.819-76.35 8.813-120 0v-263c41.678-9.559 74.44-9.126 120 0v263z" fill="url(#e)"/>
	<linearGradient id="d" x1="339.53" x2="281.86" y1="163.31" y2="68.972" gradientUnits="userSpaceOnUse">
		<stop stop-color="#583C1D" offset="0"/>
		<stop stop-color="#A42531" offset="1"/>
	</linearGradient>
	<path d="m284 120.33c18.126-2.33 33.859-1.895 54 0 1.268-2.864 1.718-4.984 0-7.333-20.49-3.356-33.077-2.972-54 0-1.54 2.98-1.46 4.85 0 7.33z" fill="url(#d)" opacity=".2"/>
	<linearGradient id="c" x1="332.32" x2="274.65" y1="167.71" y2="73.378" gradientUnits="userSpaceOnUse">
		<stop stop-color="#583C1D" offset="0"/>
		<stop stop-color="#A42531" offset="1"/>
	</linearGradient>
	<path d="m282.87 123.17c21.306-1.879 34.301-3.28 56.252 0.833 2.871 6.127 2.576 10.156 0 17.667-19.583-3.182-34.5-2.582-56.252 0-1.87-6.81-2.65-12.43 0-18.5z" fill="url(#c)" opacity=".2"/>
	<linearGradient id="b" x1="280.75" x2="352.76" y1="204.1" y2="204.1" gradientUnits="userSpaceOnUse">
		<stop stop-color="#C9443C" offset="0"/>
		<stop stop-color="#E6AE4C" offset=".5"/>
		<stop stop-color="#C9443C" offset="1"/>
	</linearGradient>
	<path d="m280.75 203.49c23.716-1.459 36.382-1.621 60.106-0.75l5e-3 2.751c-23.646-1.305-36.477-0.862-60.111 0.5v-2.5z" fill="url(#b)"/>
	<linearGradient id="a" x1="280.75" x2="352.76" y1="200.22" y2="200.22" gradientUnits="userSpaceOnUse">
		<stop stop-color="#C9443C" offset="0"/>
		<stop stop-color="#E6AE4C" offset=".5"/>
		<stop stop-color="#C9443C" offset="1"/>
	</linearGradient>
	<path d="m280.75 200.06c22.798-1.51 36.963-1.335 60.106-0.433l5e-3 1.587c-22.818-0.799-36.482-1.19-60.111 0.288v-1.45z" fill="url(#a)"/>
</svg>
